<svg xmlns="http://www.w3.org/2000/svg" viewBox="0 0 1400 865" role="img" aria-labelledby="title desc">
  <title id="title">Pack 321 business card hero artwork</title>
  <desc id="desc">Blue and gold Cub Scout Pack 321 hero artwork for the website homepage.</desc>
  <defs>
    <linearGradient id="bg" x1="0" y1="0" x2="1" y2="1"><stop stop-color="#082a55"/><stop offset=".55" stop-color="#071f40"/><stop offset="1" stop-color="#d19a13"/></linearGradient>
    <radialGradient id="sun" cx="78%" cy="18%" r="48%"><stop stop-color="#ffc629" stop-opacity=".42"/><stop offset="1" stop-color="#ffc629" stop-opacity="0"/></radialGradient>
    <filter id="shadow" x="-20%" y="-20%" width="140%" height="140%"><feDropShadow dx="0" dy="22" stdDeviation="18" flood-color="#000" flood-opacity=".28"/></filter>
  </defs>
  <rect width="1400" height="865" fill="url(#bg)"/>
  <rect width="1400" height="865" fill="url(#sun)"/>
  <path d="M0 675 C260 595 420 760 700 675 C970 590 1115 645 1400 560 L1400 865 L0 865 Z" fill="#ffc629" opacity=".9"/>
  <path d="M0 720 C280 645 410 795 710 710 C1000 630 1135 690 1400 610 L1400 865 L0 865 Z" fill="#0b315f" opacity=".65"/>
  <g filter="url(#shadow)">
    <rect x="180" y="190" width="1040" height="500" rx="24" fill="#fffdf8"/>
    <rect x="180" y="190" width="1040" height="500" rx="24" fill="none" stroke="#ffc629" stroke-width="10"/>
    <circle cx="340" cy="440" r="104" fill="#062348"/>
    <circle cx="340" cy="440" r="82" fill="#ffc629"/>
    <circle cx="340" cy="440" r="64" fill="#0b315f"/>
    <path d="M340 365l17 52 55 .4-44 32 16.5 52.5L340 470l-44.5 32 16.5-52.5-44-32 55-.4z" fill="#ffc629"/>
    <text x="340" y="454" text-anchor="middle" font-family="Arial, sans-serif" font-size="42" font-weight="900" fill="#062348">321</text>
    <text x="500" y="398" font-family="Arial, sans-serif" font-size="118" font-weight="900" fill="#062348">PACK 321</text>
    <text x="505" y="468" font-family="Arial, sans-serif" font-size="34" font-weight="900" fill="#d19a13">CUB SCOUTS • OAK CREEK, WI</text>
    <text x="505" y="530" font-family="Arial, sans-serif" font-size="31" font-weight="800" fill="#174b87">Every family has a place here.</text>
  </g>
</svg>
