<?xml version="1.0" encoding="utf-8"?>
<!-- Generator: Adobe Illustrator 12.0.0, SVG Export Plug-In . SVG Version: 6.00 Build 51448)  -->
<!DOCTYPE svg PUBLIC "-//W3C//DTD SVG 1.1//EN" "http://www.w3.org/Graphics/SVG/1.1/DTD/svg11.dtd" [
	<!ENTITY ns_svg "http://www.w3.org/2000/svg">
	<!ENTITY ns_xlink "http://www.w3.org/1999/xlink">
]>
<svg  version="1.1" id="Layer_1" xmlns="&ns_svg;" xmlns:xlink="&ns_xlink;" width="316" height="316"
	 viewBox="0 0 398.71 398.659" overflow="visible" enable-background="new 0 0 398.71 398.659" xml:space="preserve">
<polyline fill="#003882" points="0,199.329 199.33,398.659 398.71,199.329 199.33,0 0,199.329 "/>
<polyline fill="#F7D117" points="18.117,199.28 199.33,380.492 380.543,199.28 199.33,18.064 18.117,199.28 "/>
<path fill="#FFFFFF" d="M136.177,127.426c0,0-0.102-2.088-1.527,1.524c-1.425,3.614-17.454,26.36-2.697,44.427
	c0,0,13.025,15.163,37.859,26.968c0,0,3.818,5.037,5.497,9.266c0,0,1.678,6.306,6.717,11.75c0,0,6.717,3.821,16.844,3.821
	c10.077,0-1.273,0-1.273,0s12.213-0.458,18.121-5.5c0,0,5.443-8.393,5.853-20.606c0,0,20.656-13.078,33.684-17.711
	c0,0,12.214-5.444,14.708-13.84l-4.174-11.806l2.087-6.717l-7.122-14.759l-10.535-13.026l2.948-10.941
	c0,0,4.634-16.438,3.357-25.698c0,0,3.362-9.263-5.489-1.679c-8.808,7.582-1.275,0.865-1.275,0.865s-26.511,12.21-29.007,18.931
	c0,0-5.498-7.99-20.609-5.906l-2.951,2.545l-6.771-2.951l-12.161,5.445c0,0-13.893-8.802-21.883-15.979c0,0-11.4-7.124-13.079-2.494
	c-1.678,4.632-5.902,12.165,1.679,26.054v7.991c0,0-7.124,1.272-8.802,8.857V127.426"/>
<path fill="#003882" d="M189.71,94.09c2.494,1.019,4.531-0.508,6.566,3.054c7.072-4.07,14.605-0.508,21.17,0
	c11.656-2.542,22.237-14.654,35.875-15.673l-29.31,20.205c3.047,2.034,4.07,7.072,8.598,7.072l0.513-5.546
	c3.049,1.576,3.916-0.052,4.727-1.678c0.817-1.526,1.636-3.054,4.379-1.883c-1.021-0.969-3.053-0.459-4.578-1.477
	c0-1.273,1.222-1.119,2.492-0.966c0.768,0.05,1.528,0.152,2.086-0.053c3.513-5.035,9.063-6.563,11.602-12.62
	c1.522,11.096-4.069,21.222-9.111,30.789l1.528,1.016c6.06-7.582,9.621-17.148,10.586-27.275c1.524,8.089-4.526,16.182-1.48,21.728
	v9.058c-0.4,0.204-0.861,0.204-1.318,0.152c-0.712,0-1.424-0.05-1.728,0.867c2.031,2.035,3.046,4.069,6.56,6.055
	c-2.539,4.58,8.093,4.58,4.534,10.127c3.559,4.02,2.544,8.092,6.056,13.131l-3.003,4.528c9.563-0.508-1.017,9.618,7.072,11.604
	c-4.069,0.508,0.508,5.596-4.532,5.088c-3.557,3.509-1.016,13.128-10.127,10.586c-0.509,1.016-1.017,1.526-0.509,3.051
	c-1.777-1.475-3.048-0.713-4.427,0.102c-0.912,0.56-1.932,1.068-3.148,0.867c0.509,2.035,1.524,4.069,1.524,6.104
	c-2.039-1.523-6.06-2.542-6.06,0.459c-5.547,4.58-15.166,3.563-15.166,10.634c-1.018-2.54-4.021-2.032-5.546-1.524
	c-7.58,5.544-5.033,18.167-14.145,21.221c-2.698,5.395-7.684,5.19-13.283,5.041c-1.781-0.055-3.611-0.105-5.393,0
	c-9.569-3.513-16.643-11.607-18.677-21.227c-1.985,0.868-3.614-0.099-5.138-1.065c-1.325-0.816-2.597-1.628-3.97-1.43v-3.556
	c-0.916,0.254-1.833-0.055-2.799-0.358c-1.17-0.305-2.391-0.663-3.766-0.149c0.507-1.022,1.527-1.48,1.018-2.497
	c-1.018-2.545-3.003-0.51-4.02,0l-1.018,0.509c-2.546-1.019,0.507-2.546-0.508-4.581c-1.883,0.458-3.462-0.813-5.039-2.087
	c-2.24-1.83-4.429-3.713-7.073-0.405c0-1.02,0.508-2.546-0.512-3.054h-1.016c3.053-4.529-3.512-4.021-5.039-6.566h-3.561
	c0.507-2.035-1.478-3.001-0.508-5.035c-3.004,0-4.531-4.531-6.059-8.092c-3-2.035,1.02-7.075-4.02-8.092
	c-1.018-8.041,7.074-11.094,5.04-19.694c8.6-0.507,3.053-7.584,8.6-11.603c3.512,3.564-1.018,10.126-3.053,14.657
	c-1.02-0.51-1.986,0.508-2.494,1.527c1.017,6.054-5.091,17.148,0.508,20.202c0.966-1.017,3.004-2.543,5.039-3.054
	c-1.018,3.512,4.528,8.091,0.508,11.604c5.546,2.545,6.054,11.143,13.13,8.6v3c1.474,1.58,3.308,0.917,4.935,0.255
	c2.087-0.812,3.817-1.679,4.122,2.292c3.563,1.019,9.11,1.526,13.638,0.507c-1.016,6.565,8.092,1.019,4.58,8.6l3.004,1.019
	c-1.526,3.511-4.022,7.531-2.037,11.6c1.019,13.943,11.4,12.982,21.731,12.011c4.679-0.409,9.312-0.813,13.128,0.1
	c6.564-2.54,7.588-9.613,8.603-15.67c0.509-3.005-2.038-5.037-3.567-7.533c-7.021,6.059-2.49,21.171-15.621,21.171
	c-7.073-0.508-13.128-4.527-14.147-12.114c-0.507-2.491,2.546-1.018,3.513-2.033c2.545-0.965,3.561,1.524,4.58,3.055
	c4.02,0,8.039-0.509,11.094-2.039c-2.494-3.003-7.074-5.543-12.112-3.511c2.546-10.125-8.089-25.24,4.531-32.822
	c-1.02-2.545-0.511-6.564-0.511-8.599h1.019c-1.019,3.562,2.035,6.054,3.562,6.566c2.492,0,1.018-3.004,1.477-4.531
	c5.088-0.507,3.561,5.546,6.565,7.584c-1.984-8.091,2.032-17.711,11.65-18.727c4.485,1.475,9.365,1.425,14.098,1.425
	c3.66,0,7.277-0.053,10.634,0.61c-1.523,2.035-4.02,5.547-6.564,3.561c-2.541-1.015-3.048,1.478-4.527,2.494
	c2.495,3.054-2.033,4.581,0,7.585c-5.601,9.616-20.713,7.581-18.217,21.219c8.597-2.035,23.253-0.507,29.309-9.619
	c3.005-1.475,6.566-1.985,9.571,0l-0.459-4.528c1.981,1.527,4.02,0,6.563,0c2.497-2.035-2.035-3.054-1.015-5.04l6.053,2.494
	c0-6.054,2.494-14.094-4.583-18.166c1.021-1.02,1.528-2.035,1.528-3.001c-1.728-0.359-3.407,0.202-5.035,0.762
	c-2.644,0.917-5.296,1.834-8.089-1.272c-3.26-2.493-6.109-1.679-8.957-0.864c-2.956,0.813-5.909,1.679-9.211-1.171
	c-4.02,3.053-3.06-3.053-7.079-3.053c-2.031-1.986-4.681-1.781-7.173-1.63c-3.052,0.254-5.853,0.509-6.973-3.409h-1.524
	c1.524-6.055-5.55-7.582-3.005-13.636c-7.072-3.513,0.51-8.042-3.561-12.624c0,0,4.07,2.546,4.581,0
	c-1.021-5.546-8.093-3.001-9.112-9.056l-2.542,3.509c-1.477-1.016,2.035-11.602-5.038-11.602l-8.092,0.509
	c5.091,9.566-9.059,12.62-13.129,18.167c4.07,1.019,8.092-3.563,12.67-3.563c0.969-3,5.549-8.039,8.551-11.604
	c-3.512,6.057,8.092,9.619,1.018,15.166c-7.073,1.019-1.018,10.585-5.546,13.639c3.001,4.02-6.565,9.108,2.542,10.077
	c-5.596-6.565,7.531-7.531,2.494-14.605l4.53-10.127c2.035,4.07,4.58,9.616,5.088,13.636c0.509,4.53,6.566,5.549,1.985,10.126
	c4.07,0.459,1.526,9.059,7.074,6.058c2.031,4.527-6.059,8.547-3.004,14.096c-3.002-1.325-6.26-0.51-9.567,0.304
	c-2.849,0.713-5.801,1.425-8.6,0.713c0.966-5.547-2.035-8.548-3.054-13.129c-4.527-1.984-10.585-4.022-15.673-1.018
	c-3.512,3.053-8.039,6.106-11.093,9.618c7.581,0,17.15-2.545,24.224,2.035c1.527,5.547,5.596,10.074,1.527,15.624
	c1.526-11.604-14.147-6.057-16.132-15.116c-2.038-4.069-4.581,0-7.073,0.512c-1.02,0.966-2.546,1.982-2.038,3.509
	c5.546,10.584,22.747,5.546,24.224,17.658l1.527-1.016c2.035,1.527,1.019,4.07,1.526,6.105l-4.072-0.508
	c0,0.965,0.51,2.493-0.458,3.512l0.969,1.019l1.527-3.054c2.542,3.054,0.508,6.563,1.015,10.635c-7.581,0-5.036-11.604-9.616-16.693
	c-3.512-3.509-9.57-1.985-12.112-6.054c-0.507,1.016-1.526,0.507-2.492,0.507c-1.02,0-1.02-1.527,0-1.527l1.985-1.984
	c-1.019-1.527-3.004-2.542-4.531-1.017v2.493c-9.619-0.458-0.509-18.167-13.129-11.094l-5.549-3.004
	c7.076-1.015-1.016-7.073,5.039-8.6c-0.508-1.525-2.035-3.053-3.001-4.02c-1.018,0.459-1.526,0.967-2.545,0.967
	c0-0.967,3.004-2.494,0.508-4.019c2.038-1.527,5.549-11.094,11.604-5.037l1.527-1.529c-0.356-1.678-1.833-1.577-3.206-1.425
	c-0.712,0.052-1.375,0.103-1.833-0.099c0-3.512,4.531-1.53,3.004-6.058c1.527,0.508,2.035,2.035,4.07,2.035
	c-3.054-5.547,5.546-4.528,4.02-8.599c5.546,3.052,5.039-2.494,9.111-4.021l-0.511-1.526c-10.635,2.037-20.201,9.619-27.786,15.673
	c-4.527-1.526,2.038-10.635-5.036-4.577c0.966-5.039,1.985-8.551,6.055-12.112c-1.527-9.567-4.581-21.731,0-30.789
	c-2.543,11.604-1.02,26.258,8.039,33.842c-4.02-9.619-9.566-21.73-5.035-33.332c5.035,3.509,6.562,8.04,9.108,13.128
	c4.02,1.018,6.565,2.492,7.073,6.565l-2.035,1.984c5.04,0,6.563,7.582,12.621,3.054l2.543-4.02
	c-7.074-9.618-18.167-20.204-28.293-24.276c7.229-1.016,12.976,3.512,18.525,8.092C172.306,95.772,179.482,101.98,189.71,94.09"/>
<path fill="#FFFFFF" d="M210.39,98.651c-1.514,6.06,4.042,10.607,9.089,13.131c9.096,3.536,18.183,8.08,27.779,11.112
	c0,1.008,0.502,4.544-2.021,4.544c-0.509-1.01-1.514-1.516-3.031-1.516v7.071h-2.021c0.502-4.544-3.027-1.516-5.054-3.032
	c0.509-1.008,1.016-2.019,0.509-3.028l3.534,1.516c1.513-2.021,1.011-5.052-1.012-6.566l-5.548,1.011
	c-2.529-5.557-9.597-5.557-15.152-7.576c-1.514-2.021-3.535-3.03-3.535-6.06c-4.546-1.515-8.585-3.03-10.101-9.09l-5.555,1.515
	l0.502-3.534C202.813,99.156,205.849,98.651,210.39,98.651"/>
<path fill="#FFFFFF" d="M261.903,143.093l-0.504,2.021c1.01,0.503,4.036,0,3.026,3.029l-6.058,1.01l1.514-3.028
	c-9.598,1.513-4.043-19.191-13.636-8.082l-1.009-0.505c5.047-1.515,2.021-6.564,4.042-9.088
	C255.337,131.983,260.886,135.517,261.903,143.093"/>
<path fill="#FFFFFF" d="M153.325,144.101c-0.503,1.516-1.513,0.508-2.523,1.013l-0.505-3.031
	C151.307,142.589,153.325,142.589,153.325,144.101"/>
<path fill="#FFFFFF" d="M158.375,157.737c-6.563,0.505-6.563-4.544-8.583-8.584C154.338,151.174,150.802,158.748,158.375,157.737"/>
<path fill="#003882" d="M141.208,154.206c-2.021,1.512-5.05,0-7.071-1.518c0.506-1.011,2.021-4.04,4.036-3.03
	C139.187,151.174,139.692,152.688,141.208,154.206"/>
<path fill="#003882" d="M137.166,156.223c-1.008,1.514-1.516,3.03-3.028,3.03h-2.019
	C130.603,156.726,134.643,154.708,137.166,156.223"/>
<path fill="#FFFFFF" d="M232.107,158.748c-4.546,1.009,1.004,5.554-2.53,7.579c-3.534,9.085-17.668-1.516-15.146,11.109
	c-4.042-4.042,0-8.084-1.01-12.625C219.992,164.302,226.043,157.235,232.107,158.748"/>
<polyline fill="#FFFFFF" points="174.538,197.129 173.526,193.592 174.538,194.603 174.538,197.129 "/>
<polyline fill="#FFFFFF" points="174.538,197.129 174.538,197.129 173.526,193.592 174.538,194.603 174.538,197.129 
	174.538,194.603 173.526,193.592 174.538,197.129 "/>
<path fill="#005B98" d="M253.316,81.484c0,0-1.093-1.77,2.522-1.009"/>
<path fill="#003882" d="M142.787,282.758c1.428,0,10.571,0,12.78,0c0.652,0-20.936-39.613-20.936-39.613h-9.204
	c0,0,19.251,30.253,19.568,31.037c0.739,1.855-2.369,1.26-2.683,0.63c-0.254-0.509-0.633-0.475-1.262-1.414
	c-0.632-0.949-19.887-29.304-21.623-30.253h-7.888L142.787,282.758"/>
<path fill="#003882" d="M137.892,243.145c0.542,0.026,16.731-0.63,19.569,0.949c2.051,1.138,7.901,17.024,7.104,18.619
	c-0.631,1.265-1.264,1.739-1.264,1.739s1.894-0.37,2.999,0.943c1.546,1.841,7.206,17.731,4.732,17.362c-1.29-0.193-1.602,0-2.104,0
	c-2.102,0-9.889,0.16-9.889,0.16C157.831,281.757,137.892,243.145,137.892,243.145"/>
<path fill="#F7D117" d="M158.73,270.052c1.017,2.336,1.729,3.71,2.519,4.976c0.527,0.845,2.057,0.093,2.029-0.696
	c-0.021-0.789-0.833-2.744-1.541-4.058c-0.671-1.244-0.646-1.249-2.413-1.502C157.944,268.562,158.73,270.052,158.73,270.052"/>
<path fill="#F7D117" d="M150.15,253.034c1.018,2.343,3.064,6.395,4.05,7.63c0.621,0.78,2.789,0.262,2.789-0.369
	c0-0.788-2.673-6.51-3.526-7.73c-1.105-1.579-1.105-1.109-2.841-1.109C148.728,251.455,150.15,253.034,150.15,253.034"/>
<path fill="#003882" d="M173.242,243.458c2.052-0.629,15.679-0.313,19.252-0.313c0.475,0,0.949,5.207,0.949,8.051
	c0,0.788-7.622-0.337-10.259,0.475c-2.051,0.63,0.559,6.786,2.052,6.786c1.265,0,7.299-0.331,8.051,0.784
	c0.944,1.423,2.311,21.469,1.993,22.097c-0.312,0.63-0.947,1.592-1.993,1.734c-1.159,0.161-9.47,0-10.574,0s-2.051-7.73-2.051-7.73
	c0.787-0.159,4.215,0.52,5.681,0c2.209-0.788,1.895-5.842,1.42-6.785c-0.79-1.579-5.163-1.75-6.472-1.42
	c-1.261,0.315-1.894,0-2.684-1.578C177.819,263.978,173.242,243.458,173.242,243.458"/>
<path fill="#003882" d="M199.44,282.758c-0.879-0.161-1.002-2.944-1.002-3.733s-1.627-34.297-1.469-34.931
	c0.157-0.636,1.051-0.949,1.838-0.949c2.051,0,9.051,0,16.729,0c1.357,0,2.047,0.789,1.893,2.214
	c-0.153,1.42-2.203,11.884-3.214,11.994c-1.414,0.153-3.688,0.177-5.213-0.128c-0.789-0.16-0.094-4.456-0.094-4.925
	c0-1.42-1.893-2.524-3.945,0.789c-1.747,2.822-0.789,17.04-0.946,18.305c-0.163,1.265,0.397,3.634,1.733,3.634
	c2.055,0,1.21-3.634,1.682-3.634c0.475,0,4.896,0,5.686,0c0.788,0-1.282,11.364-2.737,11.364H199.44"/>
<path fill="#003882" d="M247.098,243.145h8.206c0,0-13.186,26.862-14.777,28.724c2.524-2.943-2.894,3.562,0.156,3.999
	c2.965,0.424,19.044-32.723,19.827-32.723c0.807,0,6.947,0,7.576,0c0.795,0-23.665,37.403-24.461,37.874
	c-0.784,0.475-0.475,2.053-2.048,2.053c-1.58,0-8.682-0.153-9.316,0c-0.629,0.161-1.789-0.895-0.993-1.524
	c0.783-0.629,15.361-36.819,15.361-36.819L247.098,243.145"/>
<path fill="#003882" d="M271.399,243.145c1.424,0,17.834,0,18.311,0l-6.626,8.051h-4.894c0,0-22.413,31.723-23.041,31.563
	c-0.636-0.161-5.528,0-5.528,0l20.204-31.563h-3.319L271.399,243.145"/>
<path fill="#003882" d="M296.337,243.145c1.114,0.061,18.938,0,18.938,0l-7.73,8.051c-7.422,0-7.736,0-12.469,0.158
	c0,0-7.896,8.361-6.945,9.31h9.469c2.845,0.786-20.834,21.62-21.783,22.095c-0.943,0.475,0.635,0-0.63,0c-1.258,0-13.726,0-14.201,0
	s6.156-6.891,7.416-7.892c0.623-0.485,2.842,0,6.001,0.315c1.569,0.159,7.962-6.157,8.682-6.941c1.58-1.739,0.155-1.899-1.425-2.054
	c-1.579-0.155-4.826-0.145-4.894-0.791c-0.314-2.997,14.523-19.253,15.782-20.357C293.221,244.454,293.339,242.991,296.337,243.145"
	/>
<path fill="#003882" d="M224.475,243.145c1.106,0.055,13.056-0.47,14.313,0c1.26,0.474,2.474,1.894,1.845,3.472
	c-0.636,1.579-11.524,32.667-12.314,33.932c-0.789,1.266-2.472,2.21-3.413,2.21c-0.949,0-7.532,0.16-8.635,0
	c-1.104-0.161-1.524,0-2.153-0.63c-0.68-0.679,6.626-36.614,7.255-36.614C222.008,245.514,222.433,243.051,224.475,243.145"/>
<path fill="#F7D117" d="M226.641,251.67c4.04-2.522,3.488,4.003,3.732,1.894c-0.476,4.103-6.157,22.304-7.576,22.304
	c-2.683,0-1.733-0.526-1.475-4.474c0.193-2.922,4.259-17.41,4.259-17.41L226.641,251.67"/>
<path fill="#003882" d="M270.759,62.608h0.52c0.584,0,1.082-0.213,1.082-0.767c0-0.393-0.287-0.784-1.082-0.784l-0.52,0.033V62.608
	 M270.759,65.087h-0.718v-4.478c0.376-0.052,0.734-0.105,1.27-0.105c0.675,0,1.127,0.142,1.393,0.338l0.407,0.928
	c0,0.59-0.392,0.944-0.871,1.087v0.036c0.393,0.072,0.661,0.428,0.751,1.091c0.104,0.696,0.21,0.96,0.282,1.104h-0.747
	c-0.109-0.143-0.216-0.551-0.308-1.14c-0.107-0.571-0.388-0.784-0.963-0.784h-0.496V65.087z M271.51,59.359
	c-1.772,0-3.214,1.519-3.214,3.39c0,1.91,1.441,3.41,3.225,3.41c1.789,0.016,3.214-1.5,3.214-3.391c0-1.891-1.425-3.409-3.214-3.409
	H271.51z M271.521,58.735c2.198,0,3.948,1.784,3.948,4.014c0,2.27-1.75,4.036-3.959,4.036c-2.198,0-3.981-1.767-3.981-4.036
	c0-2.23,1.783-4.014,3.981-4.014H271.521z"/>
<path fill="#003882" d="M125.584,282.284c5.84,0.949,11.363,0.475,12.94,0.475c2.118,0-8.523-12.309-8.523-12.309
	c-3.171,0-6.468-0.159-6.468-0.159c1.576,1.894,5.678,4.892,2.366,4.737c-1.577-0.078-22.882-20.712-22.882-22.413
	c0-0.631,0.787-2.055,2.209-0.79c1.182,1.05,4.259,4.893,6.943,7.261l7.997-0.054c0.156-0.476-10.68-13.673-12.888-15.252
	c-0.188-0.139-5.967-0.635-10.732-0.635c-6.311,0-8.101-0.746-7.576,2.054c0.475,2.522-0.279,0.188,2.684,4.257
	c1.262,1.74,6.153,5.688,11.521,11.364C108.539,266.501,125.584,282.284,125.584,282.284"/>
<path fill="#003882" d="M199.912,351.664c-3.532-1.646-5.194-9.762-5.194-9.762c-1.101,1.91-1.921,3.787-4.193,3.787
	c-0.743,0-1.599,0.756-3.724-1.668c-2.049-2.341,0.853-5.699,0.853-5.699c0.488,0.752,2.689,2.232,4.287,1.636
	c1.602-0.597,1.246-1.812,1.246-1.812c-1.466-0.132-1.562-0.551-1.577-1.308c-0.014-0.758,1.588-0.974,1.588-0.974
	c-0.009-9.69-5.944-9.402-5.944-9.402c-2.966,0-4.06,6.162-4.06,6.162c-1.935-1.05-3.545-2.85-4.607-3.971
	c-1.452-2.413-1.775-4.18-1.784-5.384c-0.002-1.158,1.057-3.335,1.057-3.335c7.185-7.581,14.305,0.128,14.305,0.128
	c-1.312-4.523,3.815-14.649,3.815-14.649c2.084-3.093,3.834-6.406,3.834-6.406v0.044v-0.044c0,0,1.753,3.313,3.841,6.406
	c0,0,5.13,10.126,3.815,14.649c0,0,7.119-7.709,14.305-0.128c0,0,1.059,2.177,1.053,3.335c0,1.204-0.331,2.971-1.776,5.384
	c-1.061,1.121-2.674,2.921-4.611,3.971c0,0-1.099-6.162-4.058-6.162c0,0-5.939-0.288-5.945,9.402c0,0,1.602,0.216,1.588,0.974
	c-0.012,0.757-0.113,1.176-1.576,1.308c0,0-0.355,1.215,1.244,1.812c1.602,0.597,3.8-0.884,4.291-1.636c0,0,2.905,3.358,0.851,5.699
	c-2.126,2.424-2.979,1.668-3.725,1.668c-2.272,0-3.095-1.877-4.193-3.787c0,0-1.663,8.116-5.193,9.762"/>
</svg>
